<?xml version="1.0" encoding="utf-8"?>
<!-- Generator: Adobe Illustrator 16.0.0, SVG Export Plug-In . SVG Version: 6.00 Build 0)  -->
<!DOCTYPE svg PUBLIC "-//W3C//DTD SVG 1.1//EN" "http://www.w3.org/Graphics/SVG/1.1/DTD/svg11.dtd">
<svg version="1.1" id="Camada_1" xmlns="http://www.w3.org/2000/svg" xmlns:xlink="http://www.w3.org/1999/xlink" x="0px" y="0px"
	 width="458.977px" height="158.992px" viewBox="0 0 458.977 158.992" enable-background="new 0 0 458.977 158.992"
	 xml:space="preserve">
<path fill-rule="evenodd" clip-rule="evenodd" fill="#58595B" d="M452.442,145.407c0,1.026-0.192,1.988-0.571,2.88
	c-0.385,0.898-0.904,1.674-1.571,2.335c-0.661,0.654-1.449,1.174-2.348,1.559c-0.904,0.379-1.866,0.571-2.894,0.571
	c-1.064,0-2.045-0.187-2.943-0.552c-0.892-0.372-1.668-0.879-2.31-1.526c-0.647-0.642-1.148-1.411-1.514-2.297
	c-0.365-0.892-0.545-1.867-0.545-2.932c0-1.032,0.192-1.988,0.57-2.88c0.385-0.886,0.905-1.661,1.571-2.315
	c0.667-0.661,1.443-1.18,2.342-1.553c0.892-0.378,1.86-0.563,2.899-0.563c1.065,0,2.046,0.179,2.943,0.545
	c0.898,0.365,1.669,0.865,2.31,1.514c0.648,0.642,1.149,1.411,1.514,2.303C452.263,143.38,452.442,144.354,452.442,145.407
	 M450.749,145.516c0-0.885-0.142-1.693-0.424-2.424c-0.282-0.725-0.673-1.347-1.174-1.866c-0.5-0.521-1.097-0.918-1.783-1.194
	c-0.686-0.275-1.437-0.417-2.238-0.417c-0.859,0-1.643,0.154-2.335,0.456c-0.699,0.301-1.295,0.712-1.796,1.238
	c-0.5,0.526-0.886,1.135-1.154,1.834c-0.27,0.693-0.405,1.437-0.405,2.227c0,0.878,0.142,1.68,0.424,2.405
	c0.283,0.725,0.674,1.347,1.174,1.866s1.097,0.924,1.784,1.206c0.687,0.282,1.436,0.424,2.237,0.424c0.86,0,1.643-0.154,2.349-0.463
	c0.698-0.307,1.296-0.718,1.796-1.238c0.494-0.519,0.872-1.128,1.142-1.827C450.614,147.049,450.749,146.305,450.749,145.516z
	 M448.536,148.955c0,0.051-0.013,0.102-0.032,0.14c-0.02,0.046-0.064,0.078-0.141,0.097c-0.071,0.02-0.18,0.032-0.321,0.045
	c-0.135,0.013-0.32,0.02-0.558,0.02c-0.219,0-0.386-0.007-0.52-0.02c-0.129-0.013-0.238-0.032-0.321-0.063
	c-0.077-0.032-0.141-0.078-0.186-0.129c-0.045-0.058-0.077-0.135-0.104-0.237l-0.397-1.296c-0.147-0.462-0.327-0.789-0.532-0.969
	s-0.519-0.275-0.93-0.275h-0.507v2.637c0,0.135-0.058,0.23-0.16,0.282c-0.109,0.045-0.354,0.07-0.744,0.07
	c-0.392,0-0.648-0.025-0.771-0.07c-0.128-0.052-0.186-0.147-0.186-0.282v-6.748c0-0.276,0.064-0.494,0.205-0.648
	c0.135-0.16,0.347-0.236,0.622-0.236h2.155c0.507,0,0.943,0.044,1.328,0.134c0.385,0.084,0.705,0.225,0.975,0.411
	c0.27,0.186,0.475,0.423,0.616,0.705c0.135,0.282,0.205,0.616,0.205,1.008c0,0.596-0.167,1.064-0.487,1.397
	c-0.327,0.334-0.77,0.564-1.315,0.706c0.295,0.096,0.578,0.27,0.841,0.506c0.263,0.238,0.493,0.597,0.68,1.072l0.449,1.199
	C448.491,148.697,448.536,148.884,448.536,148.955z M446.201,143.753c0-0.143-0.02-0.27-0.052-0.398
	c-0.038-0.122-0.115-0.231-0.218-0.327c-0.109-0.096-0.25-0.167-0.423-0.218c-0.174-0.045-0.398-0.07-0.661-0.07h-0.859v2.104h0.827
	c0.526,0,0.886-0.103,1.084-0.302C446.105,144.342,446.201,144.08,446.201,143.753z"/>
<path fill="#58595B" d="M435.63,81.418c-1.259-0.644-2.733-1.32-4.422-1.965c-1.688-0.675-3.47-1.259-5.343-1.812
	c-1.903-0.553-3.839-0.983-5.804-1.352c-1.996-0.368-3.899-0.552-5.772-0.552c-4.361,0-7.493,0.86-9.396,2.518
	c-1.873,1.689-2.826,3.747-2.826,6.142c0,2.457,0.922,4.453,2.795,6.019c1.842,1.566,4.299,3.133,7.369,4.668
	c3.594,1.75,6.756,3.5,9.427,5.22c2.703,1.75,4.975,3.654,6.757,5.772c1.812,2.089,3.162,4.453,4.053,7.063
	c0.891,2.609,1.352,5.619,1.352,9.027c0,3.654-0.737,7.309-2.242,10.993c-1.505,3.654-3.931,6.939-7.308,9.826
	c-3.348,2.918-7.77,5.281-13.266,7.063c-5.467,1.812-12.222,2.702-20.175,2.702c-2.303,0-4.729-0.123-7.309-0.339
	c-2.579-0.245-5.128-0.583-7.646-1.013c-2.518-0.398-4.913-0.921-7.247-1.535c-2.303-0.584-4.36-1.26-6.142-1.966l4.207-21.679
	c1.566,0.829,3.378,1.688,5.404,2.518c2.058,0.83,4.207,1.597,6.541,2.304c2.303,0.676,4.667,1.259,7.154,1.688
	c2.457,0.461,4.883,0.676,7.277,0.676c4.483,0,7.831-0.769,10.012-2.334c2.211-1.565,3.285-3.685,3.285-6.387
	c0-2.272-0.83-4.269-2.519-5.988c-1.658-1.688-4.575-3.501-8.721-5.435c-3.408-1.628-6.418-3.286-9.027-5.036
	c-2.61-1.751-4.821-3.654-6.633-5.742c-1.781-2.119-3.132-4.453-4.023-7.032c-0.921-2.579-1.351-5.496-1.351-8.721
	c0-3.409,0.676-6.94,2.026-10.563c1.352-3.654,3.563-6.939,6.694-9.918c3.102-2.948,7.247-5.374,12.375-7.278
	c5.128-1.874,11.423-2.825,18.915-2.825c2.303,0,4.638,0.092,7.032,0.308c2.396,0.215,4.729,0.491,7.002,0.86
	c2.303,0.368,4.452,0.768,6.479,1.258c2.058,0.461,3.839,0.952,5.404,1.444L435.63,81.418z"/>
<path fill="#58595B" d="M257.775,80.528c1.677-0.938,3.369-1.626,5.084-2.023l0.002-0.001v0c0.814-0.189,1.635-0.312,2.459-0.365
	l-0.003,0.02c0.783-0.161,1.551-0.241,2.303-0.241c2.918,0,5.128,0.83,6.602,2.457c1.475,1.658,2.213,3.991,2.213,6.971
	c0,1.105-0.186,2.641-0.554,4.698c-0.338,2.026-0.707,4.022-1.074,5.927l-11.239,52.539h28.68l9.459-45.508
	c0.736-3.439,1.964-6.755,3.745-10.01c1.751-3.225,3.808-6.111,6.11-8.629c2.304-2.518,4.761-4.545,7.34-6.111
	c2.579-1.566,5.005-2.334,7.277-2.334c3.01,0,5.221,0.83,6.663,2.457c1.443,1.658,2.149,3.991,2.149,6.971
	c0,1.105-0.184,2.641-0.552,4.698c-0.338,2.026-0.707,4.022-1.075,5.927l-11.239,52.539h28.527l11.238-53.247
	c0.246-1.104,0.522-2.394,0.799-3.929c0.307-1.535,0.583-3.103,0.859-4.729c0.276-1.597,0.492-3.163,0.676-4.667
	c0.185-1.505,0.276-2.702,0.276-3.593c0-7.799-1.935-13.787-5.804-17.963c-3.869-4.146-9.611-6.234-17.227-6.234
	c-3.408,0-6.786,0.492-10.071,1.536c-3.317,1.013-6.479,2.457-9.55,4.299c-3.041,1.873-5.927,4.084-8.63,6.664
	c-2.701,2.58-5.188,5.436-7.461,8.537c-0.615-6.602-2.732-11.761-6.388-15.476c-3.654-3.716-9.089-5.559-16.274-5.559
	c-3.071,0-6.141,0.492-9.182,1.536c-3.07,1.013-6.019,2.395-8.905,4.176c-7.744,4.697-9.147,7.51-14.31,14.248h-0.368l3.681-17.02
	l-30.672-0.698c-0.183,1.504-0.429,3.347-0.767,5.527c-0.307,2.18-0.707,4.575-1.106,7.124c-0.43,2.549-0.89,5.22-1.443,7.984
	c-0.552,2.794-1.074,5.588-1.627,8.321l-6.472,28.864l-1.261,5.626l0.073-0.108C222.061,105.813,234.609,90.439,257.775,80.528"/>
<path fill="#58595B" d="M59.634,58.345c-0.975-0.195-2.057-0.368-3.249-0.477c-1.169-0.086-2.295-0.15-3.357-0.15
	c-2.923,0-5.479,0.497-7.667,1.472c-2.21,0.953-4.115,2.231-5.762,3.79c-1.625,1.581-2.989,3.357-4.093,5.329
	c-1.082,1.992-1.971,4.006-2.621,6.064s-1.126,4.049-1.408,5.999c-0.26,1.949-0.412,3.66-0.412,5.132
	c0,1.581,0.173,3.033,0.477,4.354c0.325,1.343,0.823,2.49,1.495,3.466c0.671,0.975,1.516,1.732,2.512,2.273
	c0.997,0.563,2.145,0.823,3.466,0.823c2.404,0,4.547-0.693,6.431-2.079c1.885-1.408,3.53-3.184,4.938-5.371
	c1.43-2.188,2.621-4.635,3.574-7.364c0.932-2.729,1.711-5.414,2.296-8.078L59.634,58.345z M73.278,88.753
	c-0.303,1.3-0.584,2.902-0.866,4.743c-0.282,1.862-0.521,3.813-0.758,5.825c-0.238,1.993-0.433,3.964-0.563,5.892
	c-0.152,1.927-0.239,3.596-0.239,4.981H50.56c0-0.629,0.021-1.452,0.086-2.448c0.064-0.995,0.151-2.013,0.216-3.031
	c0.086-1.04,0.195-2.058,0.303-3.054c0.087-0.996,0.196-1.841,0.282-2.513h-0.26c-1.234,1.646-2.49,3.249-3.812,4.765
	c-1.3,1.517-2.771,2.859-4.374,4.028c-1.604,1.17-3.401,2.102-5.35,2.795c-1.97,0.692-4.245,1.04-6.822,1.04
	c-3.183,0-5.999-0.564-8.468-1.712c-2.491-1.147-4.57-2.794-6.259-4.938c-1.689-2.165-2.988-4.808-3.877-7.904
	c-0.889-3.12-1.321-6.628-1.321-10.57c0-1.991,0.216-4.439,0.649-7.319c0.455-2.902,1.256-5.956,2.425-9.14
	c1.17-3.205,2.773-6.367,4.851-9.529c2.08-3.141,4.722-5.979,7.971-8.534c3.227-2.533,7.147-4.592,11.739-6.151
	c4.59-1.559,9.983-2.338,16.2-2.338c2.404,0,4.829,0.086,7.277,0.281c2.425,0.195,4.808,0.434,7.169,0.759
	c2.339,0.324,4.613,0.692,6.822,1.104c2.188,0.433,4.245,0.845,6.15,1.278L73.278,88.753z"/>
<path fill="#58595B" d="M111.492,109.631c-0.758,0.194-1.625,0.412-2.62,0.629c-0.997,0.216-2.059,0.411-3.184,0.605
	c-1.105,0.195-2.275,0.325-3.487,0.434c-1.191,0.108-2.404,0.174-3.574,0.174c-2.837,0-5.262-0.368-7.277-1.126
	c-2.014-0.736-3.66-1.776-4.981-3.097c-1.299-1.344-2.275-2.926-2.88-4.766c-0.606-1.841-0.931-3.855-0.931-6.064
	c0-0.931,0.064-1.971,0.173-3.097c0.109-1.148,0.239-2.34,0.412-3.596c0.174-1.234,0.368-2.513,0.606-3.812
	c0.217-1.278,0.476-2.513,0.715-3.704c0.13-0.542,0.412-1.884,0.867-4.028c0.433-2.145,0.996-4.764,1.688-7.904
	c0.671-3.12,1.407-6.607,2.209-10.44c0.801-3.811,1.646-7.731,2.512-11.738c0.866-3.985,1.689-7.905,2.513-11.739
	c0.801-3.812,1.537-7.298,2.209-10.438c0.671-3.12,1.234-5.762,1.689-7.884c0.434-2.145,0.715-3.487,0.845-4.028h20.315
	l-14.403,67.746c-0.347,1.494-0.713,3.162-1.083,4.98c-0.389,1.842-0.562,3.444-0.562,4.809c0,1.603,0.497,2.729,1.515,3.356
	c1.018,0.628,2.166,0.953,3.487,0.953c1.105,0,2.208-0.107,3.335-0.347c1.126-0.237,2.144-0.541,3.076-0.932
	c-0.563,2.535-1.083,5.047-1.582,7.516C112.574,104.585,112.055,107.076,111.492,109.631"/>
<path fill="#58595B" d="M163.747,121.492c0.243-1.751,0.535-3.561,0.859-5.405c0.319-1.81,0.65-3.567,1.014-5.25
	c0.22-1.02,0.66-2.884,1.228-5.62c0.567-2.73,1.215-5.868,1.965-9.396c0.753-3.535,1.566-7.277,2.396-11.209
	c0.829-3.93,1.641-7.674,2.394-11.208c0.751-3.527,1.399-6.667,1.966-9.396c0.568-2.736,0.982-4.606,1.228-5.619h16.827
	c7.882,0,10.79,5.312,9.599,10.789l-10.719,49.287c-0.461,2.124-1.002,4.485-1.535,7.062c-0.264,1.274-0.46,2.468-0.592,3.579
	c-0.139,1.168-0.207,2.248-0.207,3.239c0,2.271,0.707,3.869,2.149,4.759c1.386,0.855,2.942,1.314,4.723,1.35
	c-1.037,1.331-2.128,2.675-3.269,3.968c-7.957,8.549-19.171,11.576-25.852,3.884c-0.713-0.82-1.375-1.764-1.975-2.835
	C162.736,137.736,162.827,128.109,163.747,121.492"/>
<path fill-rule="evenodd" clip-rule="evenodd" fill="#FAA336" d="M180.562,26.731c0.94,5.601,1.88,11.203,2.819,16.805
	c1.626,9.705,16.82,8.068,16.779,1.368c-2.25-7.965-9.646-11.461-9.652-12.49c-0.008-1.235,9.717-4.245,16.238,7.475
	c-0.03-5.12-0.407-6.777-5.031-10.082C193.77,24.128,179.29,19.154,180.562,26.731"/>
<path fill-rule="evenodd" clip-rule="evenodd" fill="#FAA336" d="M247.425,90.296l-12.646,60.251h-29.335l0.397-2.586
	C214.862,131.953,234.485,97.418,247.425,90.296"/>
<path fill="#58595B" d="M156.035,148.628c-1.066,0.273-2.286,0.58-3.686,0.884c-1.401,0.305-2.895,0.579-4.478,0.854
	c-1.555,0.273-3.2,0.456-4.905,0.608c-1.676,0.152-3.381,0.244-5.027,0.244c-3.99,0-7.401-0.518-10.234-1.583
	c-2.833-1.037-5.149-2.498-7.007-4.356c-1.827-1.89-3.199-4.114-4.052-6.702c-0.852-2.589-1.31-5.423-1.31-8.529
	c0-1.31,0.091-2.771,0.244-4.355c0.152-1.615,0.335-3.291,0.578-5.058c0.245-1.736,0.519-3.534,0.854-5.36
	c0.305-1.798,0.67-3.534,1.005-5.21c0.183-0.762,0.579-2.649,1.219-5.665c0.609-3.017,1.401-6.701,2.376-11.118
	c0.943-4.387,1.979-9.293,3.106-14.684c1.127-5.361,2.316-10.875,3.534-16.51c1.218-5.604,2.376-11.118,3.534-16.51
	c1.127-5.36,2.162-10.265,3.106-14.682c0.945-4.387,1.736-8.104,2.376-11.088c0.61-3.016,1.005-4.904,1.188-5.666h28.573
	l-20.258,95.285c-0.487,2.102-1.004,4.446-1.523,7.006c-0.547,2.589-0.791,4.843-0.791,6.762c0,2.254,0.699,3.839,2.132,4.722
	c1.431,0.883,3.046,1.34,4.905,1.34c1.554,0,3.106-0.151,4.69-0.486c1.584-0.335,3.015-0.762,4.326-1.312
	c-0.792,3.566-1.523,7.1-2.224,10.572C157.558,141.53,156.827,145.034,156.035,148.628"/>
</svg>
